<svg id="visual" viewBox="0 0 1920 1080" width="1920" height="1080" xmlns="http://www.w3.org/2000/svg" xmlns:xlink="http://www.w3.org/1999/xlink" version="1.1"><rect x="0" y="0" width="1920" height="1080" fill="#001220"></rect><g fill="none" stroke="#715DF2" stroke-width="2"><circle r="122" cx="1023" cy="1022"></circle><circle r="22" cx="208" cy="913"></circle><circle r="98" cx="559" cy="779"></circle><circle r="39" cx="1668" cy="124"></circle><circle r="102" cx="1377" cy="579"></circle><circle r="91" cx="990" cy="449"></circle><circle r="70" cx="1641" cy="746"></circle><circle r="110" cx="226" cy="474"></circle><circle r="103" cx="1329" cy="1022"></circle><circle r="117" cx="1778" cy="1018"></circle><circle r="83" cx="1656" cy="442"></circle><circle r="61" cx="895" cy="163"></circle><circle r="44" cx="721" cy="542"></circle><circle r="21" cx="1092" cy="742"></circle><circle r="86" cx="1332" cy="6"></circle><circle r="113" cx="304" cy="85"></circle><circle r="91" cx="1308" cy="334"></circle><circle r="110" cx="593" cy="156"></circle><circle r="51" cx="759" cy="1042"></circle><circle r="99" cx="464" cy="1021"></circle><circle r="77" cx="11" cy="638"></circle><circle r="116" cx="6" cy="326"></circle><circle r="67" cx="1908" cy="438"></circle><circle r="29" cx="1918" cy="700"></circle><circle r="81" cx="806" cy="792"></circle><circle r="40" cx="42" cy="26"></circle><circle r="112" cx="12" cy="1072"></circle><circle r="21" cx="469" cy="401"></circle><circle r="65" cx="1908" cy="180"></circle></g></svg>