<?xml version="1.0" encoding="UTF-8" standalone="no"?>
<svg
   xmlns:dc="http://purl.org/dc/elements/1.1/"
   xmlns:cc="http://creativecommons.org/ns#"
   xmlns:rdf="http://www.w3.org/1999/02/22-rdf-syntax-ns#"
   xmlns:svg="http://www.w3.org/2000/svg"
   xmlns="http://www.w3.org/2000/svg"
   xmlns:sodipodi="http://sodipodi.sourceforge.net/DTD/sodipodi-0.dtd"
   xmlns:inkscape="http://www.inkscape.org/namespaces/inkscape"
   width="64"
   height="64"
   shape-rendering="geometricPrecision"
   text-rendering="geometricPrecision"
   image-rendering="optimizeQuality"
   fill-rule="evenodd"
   clip-rule="evenodd"
   viewBox="0 0 640 640"
   version="1.1"
   id="svg4"
   sodipodi:docname="linkedin-2.svg"
   inkscape:version="1.0.1 (3bc2e813f5, 2020-09-07)">
  <metadata
     id="metadata10">
    <rdf:RDF>
      <cc:Work
         rdf:about="">
        <dc:format>image/svg+xml</dc:format>
        <dc:type
           rdf:resource="http://purl.org/dc/dcmitype/StillImage" />
        <dc:title></dc:title>
      </cc:Work>
    </rdf:RDF>
  </metadata>
  <defs
     id="defs8" />
  <sodipodi:namedview
     pagecolor="#ffffff"
     bordercolor="#666666"
     borderopacity="1"
     objecttolerance="10"
     gridtolerance="10"
     guidetolerance="10"
     inkscape:pageopacity="0"
     inkscape:pageshadow="2"
     inkscape:window-width="820"
     inkscape:window-height="480"
     id="namedview6"
     showgrid="false"
     inkscape:zoom="13.90625"
     inkscape:cx="32"
     inkscape:cy="32"
     inkscape:window-x="0"
     inkscape:window-y="0"
     inkscape:window-maximized="0"
     inkscape:current-layer="svg4" />
  <path
     d="M579.999 0H60C27 0 0 27 0 60v520c0 33 27 60 60 60h519.999c33 0 60-27 60-60V60c0-33-27-60-60-60zM239.991 519.999h-79.985V239.992h79.985v280.007zm-40.004-320.012c-22.11 0-39.993-17.882-39.993-39.993 0-22.122 17.882-40.004 39.993-40.004 22.122 0 40.004 17.882 40.004 40.004 0 22.11-17.882 39.993-40.004 39.993zm320.012 320.012h-79.986V360.005c0-22.122-17.893-40.004-40.004-40.004-22.122 0-40.004 17.882-40.004 40.004v159.994h-80.01V239.992h80.01v49.642c16.476-22.654 41.752-49.642 69.993-49.642 49.76 0 90 44.764 90 100.005v180.002z"
     id="path2"
     style="fill:#ffffff" />
</svg>
